<?xml version="1.0" encoding="utf-8" standalone="no"?>
<!DOCTYPE svg PUBLIC "-//W3C//DTD SVG 1.1//EN"
  "http://www.w3.org/Graphics/SVG/1.1/DTD/svg11.dtd">
<!-- Created with matplotlib (http://matplotlib.org/) -->
<svg height="288pt" version="1.1" viewBox="0 0 576 288" width="576pt" xmlns="http://www.w3.org/2000/svg" xmlns:xlink="http://www.w3.org/1999/xlink">
 <defs>
  <style type="text/css">
*{stroke-linecap:butt;stroke-linejoin:round;}
  </style>
 </defs>
 <g id="figure_1">
  <g id="patch_1">
   <path d="M 0 288 
L 576 288 
L 576 0 
L 0 0 
z
" style="fill:#ffffff;"/>
  </g>
  <g id="axes_1">
   <g id="patch_2">
    <path d="M 60.423889 246.04 
L 552.555 246.04 
L 552.555 13.32 
L 60.423889 13.32 
z
" style="fill:#ffffff;"/>
   </g>
   <g id="matplotlib.axis_1">
    <g id="xtick_1">
     <g id="line2d_1">
      <defs>
       <path d="M 0 0 
L 0 3.5 
" id="m35bf502cb1" style="stroke:#000000;stroke-width:0.8;"/>
      </defs>
      <g>
       <use style="stroke:#000000;stroke-width:0.8;" x="60.423889" xlink:href="#m35bf502cb1" y="246.04"/>
      </g>
     </g>
     <g id="text_1">
      <!-- 0 -->
      <defs>
       <path d="M 31.78125 66.40625 
Q 24.171875 66.40625 20.328125 58.90625 
Q 16.5 51.421875 16.5 36.375 
Q 16.5 21.390625 20.328125 13.890625 
Q 24.171875 6.390625 31.78125 6.390625 
Q 39.453125 6.390625 43.28125 13.890625 
Q 47.125 21.390625 47.125 36.375 
Q 47.125 51.421875 43.28125 58.90625 
Q 39.453125 66.40625 31.78125 66.40625 
z
M 31.78125 74.21875 
Q 44.046875 74.21875 50.515625 64.515625 
Q 56.984375 54.828125 56.984375 36.375 
Q 56.984375 17.96875 50.515625 8.265625 
Q 44.046875 -1.421875 31.78125 -1.421875 
Q 19.53125 -1.421875 13.0625 8.265625 
Q 6.59375 17.96875 6.59375 36.375 
Q 6.59375 54.828125 13.0625 64.515625 
Q 19.53125 74.21875 31.78125 74.21875 
z
" id="DejaVuSans-30"/>
      </defs>
      <g transform="translate(57.242639 260.638438)scale(0.1 -0.1)">
       <use xlink:href="#DejaVuSans-30"/>
      </g>
     </g>
    </g>
    <g id="xtick_2">
     <g id="line2d_2">
      <g>
       <use style="stroke:#000000;stroke-width:0.8;" x="158.850111" xlink:href="#m35bf502cb1" y="246.04"/>
      </g>
     </g>
     <g id="text_2">
      <!-- 200 -->
      <defs>
       <path d="M 19.1875 8.296875 
L 53.609375 8.296875 
L 53.609375 0 
L 7.328125 0 
L 7.328125 8.296875 
Q 12.9375 14.109375 22.625 23.890625 
Q 32.328125 33.6875 34.8125 36.53125 
Q 39.546875 41.84375 41.421875 45.53125 
Q 43.3125 49.21875 43.3125 52.78125 
Q 43.3125 58.59375 39.234375 62.25 
Q 35.15625 65.921875 28.609375 65.921875 
Q 23.96875 65.921875 18.8125 64.3125 
Q 13.671875 62.703125 7.8125 59.421875 
L 7.8125 69.390625 
Q 13.765625 71.78125 18.9375 73 
Q 24.125 74.21875 28.421875 74.21875 
Q 39.75 74.21875 46.484375 68.546875 
Q 53.21875 62.890625 53.21875 53.421875 
Q 53.21875 48.921875 51.53125 44.890625 
Q 49.859375 40.875 45.40625 35.40625 
Q 44.1875 33.984375 37.640625 27.21875 
Q 31.109375 20.453125 19.1875 8.296875 
z
" id="DejaVuSans-32"/>
      </defs>
      <g transform="translate(149.306361 260.638438)scale(0.1 -0.1)">
       <use xlink:href="#DejaVuSans-32"/>
       <use x="63.623047" xlink:href="#DejaVuSans-30"/>
       <use x="127.246094" xlink:href="#DejaVuSans-30"/>
      </g>
     </g>
    </g>
    <g id="xtick_3">
     <g id="line2d_3">
      <g>
       <use style="stroke:#000000;stroke-width:0.8;" x="257.276334" xlink:href="#m35bf502cb1" y="246.04"/>
      </g>
     </g>
     <g id="text_3">
      <!-- 400 -->
      <defs>
       <path d="M 37.796875 64.3125 
L 12.890625 25.390625 
L 37.796875 25.390625 
z
M 35.203125 72.90625 
L 47.609375 72.90625 
L 47.609375 25.390625 
L 58.015625 25.390625 
L 58.015625 17.1875 
L 47.609375 17.1875 
L 47.609375 0 
L 37.796875 0 
L 37.796875 17.1875 
L 4.890625 17.1875 
L 4.890625 26.703125 
z
" id="DejaVuSans-34"/>
      </defs>
      <g transform="translate(247.732584 260.638438)scale(0.1 -0.1)">
       <use xlink:href="#DejaVuSans-34"/>
       <use x="63.623047" xlink:href="#DejaVuSans-30"/>
       <use x="127.246094" xlink:href="#DejaVuSans-30"/>
      </g>
     </g>
    </g>
    <g id="xtick_4">
     <g id="line2d_4">
      <g>
       <use style="stroke:#000000;stroke-width:0.8;" x="355.702556" xlink:href="#m35bf502cb1" y="246.04"/>
      </g>
     </g>
     <g id="text_4">
      <!-- 600 -->
      <defs>
       <path d="M 33.015625 40.375 
Q 26.375 40.375 22.484375 35.828125 
Q 18.609375 31.296875 18.609375 23.390625 
Q 18.609375 15.53125 22.484375 10.953125 
Q 26.375 6.390625 33.015625 6.390625 
Q 39.65625 6.390625 43.53125 10.953125 
Q 47.40625 15.53125 47.40625 23.390625 
Q 47.40625 31.296875 43.53125 35.828125 
Q 39.65625 40.375 33.015625 40.375 
z
M 52.59375 71.296875 
L 52.59375 62.3125 
Q 48.875 64.0625 45.09375 64.984375 
Q 41.3125 65.921875 37.59375 65.921875 
Q 27.828125 65.921875 22.671875 59.328125 
Q 17.53125 52.734375 16.796875 39.40625 
Q 19.671875 43.65625 24.015625 45.921875 
Q 28.375 48.1875 33.59375 48.1875 
Q 44.578125 48.1875 50.953125 41.515625 
Q 57.328125 34.859375 57.328125 23.390625 
Q 57.328125 12.15625 50.6875 5.359375 
Q 44.046875 -1.421875 33.015625 -1.421875 
Q 20.359375 -1.421875 13.671875 8.265625 
Q 6.984375 17.96875 6.984375 36.375 
Q 6.984375 53.65625 15.1875 63.9375 
Q 23.390625 74.21875 37.203125 74.21875 
Q 40.921875 74.21875 44.703125 73.484375 
Q 48.484375 72.75 52.59375 71.296875 
z
" id="DejaVuSans-36"/>
      </defs>
      <g transform="translate(346.158806 260.638438)scale(0.1 -0.1)">
       <use xlink:href="#DejaVuSans-36"/>
       <use x="63.623047" xlink:href="#DejaVuSans-30"/>
       <use x="127.246094" xlink:href="#DejaVuSans-30"/>
      </g>
     </g>
    </g>
    <g id="xtick_5">
     <g id="line2d_5">
      <g>
       <use style="stroke:#000000;stroke-width:0.8;" x="454.128778" xlink:href="#m35bf502cb1" y="246.04"/>
      </g>
     </g>
     <g id="text_5">
      <!-- 800 -->
      <defs>
       <path d="M 31.78125 34.625 
Q 24.75 34.625 20.71875 30.859375 
Q 16.703125 27.09375 16.703125 20.515625 
Q 16.703125 13.921875 20.71875 10.15625 
Q 24.75 6.390625 31.78125 6.390625 
Q 38.8125 6.390625 42.859375 10.171875 
Q 46.921875 13.96875 46.921875 20.515625 
Q 46.921875 27.09375 42.890625 30.859375 
Q 38.875 34.625 31.78125 34.625 
z
M 21.921875 38.8125 
Q 15.578125 40.375 12.03125 44.71875 
Q 8.5 49.078125 8.5 55.328125 
Q 8.5 64.0625 14.71875 69.140625 
Q 20.953125 74.21875 31.78125 74.21875 
Q 42.671875 74.21875 48.875 69.140625 
Q 55.078125 64.0625 55.078125 55.328125 
Q 55.078125 49.078125 51.53125 44.71875 
Q 48 40.375 41.703125 38.8125 
Q 48.828125 37.15625 52.796875 32.3125 
Q 56.78125 27.484375 56.78125 20.515625 
Q 56.78125 9.90625 50.3125 4.234375 
Q 43.84375 -1.421875 31.78125 -1.421875 
Q 19.734375 -1.421875 13.25 4.234375 
Q 6.78125 9.90625 6.78125 20.515625 
Q 6.78125 27.484375 10.78125 32.3125 
Q 14.796875 37.15625 21.921875 38.8125 
z
M 18.3125 54.390625 
Q 18.3125 48.734375 21.84375 45.5625 
Q 25.390625 42.390625 31.78125 42.390625 
Q 38.140625 42.390625 41.71875 45.5625 
Q 45.3125 48.734375 45.3125 54.390625 
Q 45.3125 60.0625 41.71875 63.234375 
Q 38.140625 66.40625 31.78125 66.40625 
Q 25.390625 66.40625 21.84375 63.234375 
Q 18.3125 60.0625 18.3125 54.390625 
z
" id="DejaVuSans-38"/>
      </defs>
      <g transform="translate(444.585028 260.638438)scale(0.1 -0.1)">
       <use xlink:href="#DejaVuSans-38"/>
       <use x="63.623047" xlink:href="#DejaVuSans-30"/>
       <use x="127.246094" xlink:href="#DejaVuSans-30"/>
      </g>
     </g>
    </g>
    <g id="xtick_6">
     <g id="line2d_6">
      <g>
       <use style="stroke:#000000;stroke-width:0.8;" x="552.555" xlink:href="#m35bf502cb1" y="246.04"/>
      </g>
     </g>
     <g id="text_6">
      <!-- 1000 -->
      <defs>
       <path d="M 12.40625 8.296875 
L 28.515625 8.296875 
L 28.515625 63.921875 
L 10.984375 60.40625 
L 10.984375 69.390625 
L 28.421875 72.90625 
L 38.28125 72.90625 
L 38.28125 8.296875 
L 54.390625 8.296875 
L 54.390625 0 
L 12.40625 0 
z
" id="DejaVuSans-31"/>
      </defs>
      <g transform="translate(539.83 260.638438)scale(0.1 -0.1)">
       <use xlink:href="#DejaVuSans-31"/>
       <use x="63.623047" xlink:href="#DejaVuSans-30"/>
       <use x="127.246094" xlink:href="#DejaVuSans-30"/>
       <use x="190.869141" xlink:href="#DejaVuSans-30"/>
      </g>
     </g>
    </g>
    <g id="text_7">
     <!-- Frequency (Hz) -->
     <defs>
      <path d="M 9.8125 72.90625 
L 51.703125 72.90625 
L 51.703125 64.59375 
L 19.671875 64.59375 
L 19.671875 43.109375 
L 48.578125 43.109375 
L 48.578125 34.8125 
L 19.671875 34.8125 
L 19.671875 0 
L 9.8125 0 
z
" id="DejaVuSans-46"/>
      <path d="M 41.109375 46.296875 
Q 39.59375 47.171875 37.8125 47.578125 
Q 36.03125 48 33.890625 48 
Q 26.265625 48 22.1875 43.046875 
Q 18.109375 38.09375 18.109375 28.8125 
L 18.109375 0 
L 9.078125 0 
L 9.078125 54.6875 
L 18.109375 54.6875 
L 18.109375 46.1875 
Q 20.953125 51.171875 25.484375 53.578125 
Q 30.03125 56 36.53125 56 
Q 37.453125 56 38.578125 55.875 
Q 39.703125 55.765625 41.0625 55.515625 
z
" id="DejaVuSans-72"/>
      <path d="M 56.203125 29.59375 
L 56.203125 25.203125 
L 14.890625 25.203125 
Q 15.484375 15.921875 20.484375 11.0625 
Q 25.484375 6.203125 34.421875 6.203125 
Q 39.59375 6.203125 44.453125 7.46875 
Q 49.3125 8.734375 54.109375 11.28125 
L 54.109375 2.78125 
Q 49.265625 0.734375 44.1875 -0.34375 
Q 39.109375 -1.421875 33.890625 -1.421875 
Q 20.796875 -1.421875 13.15625 6.1875 
Q 5.515625 13.8125 5.515625 26.8125 
Q 5.515625 40.234375 12.765625 48.109375 
Q 20.015625 56 32.328125 56 
Q 43.359375 56 49.78125 48.890625 
Q 56.203125 41.796875 56.203125 29.59375 
z
M 47.21875 32.234375 
Q 47.125 39.59375 43.09375 43.984375 
Q 39.0625 48.390625 32.421875 48.390625 
Q 24.90625 48.390625 20.390625 44.140625 
Q 15.875 39.890625 15.1875 32.171875 
z
" id="DejaVuSans-65"/>
      <path d="M 14.796875 27.296875 
Q 14.796875 17.390625 18.875 11.75 
Q 22.953125 6.109375 30.078125 6.109375 
Q 37.203125 6.109375 41.296875 11.75 
Q 45.40625 17.390625 45.40625 27.296875 
Q 45.40625 37.203125 41.296875 42.84375 
Q 37.203125 48.484375 30.078125 48.484375 
Q 22.953125 48.484375 18.875 42.84375 
Q 14.796875 37.203125 14.796875 27.296875 
z
M 45.40625 8.203125 
Q 42.578125 3.328125 38.25 0.953125 
Q 33.9375 -1.421875 27.875 -1.421875 
Q 17.96875 -1.421875 11.734375 6.484375 
Q 5.515625 14.40625 5.515625 27.296875 
Q 5.515625 40.1875 11.734375 48.09375 
Q 17.96875 56 27.875 56 
Q 33.9375 56 38.25 53.625 
Q 42.578125 51.265625 45.40625 46.390625 
L 45.40625 54.6875 
L 54.390625 54.6875 
L 54.390625 -20.796875 
L 45.40625 -20.796875 
z
" id="DejaVuSans-71"/>
      <path d="M 8.5 21.578125 
L 8.5 54.6875 
L 17.484375 54.6875 
L 17.484375 21.921875 
Q 17.484375 14.15625 20.5 10.265625 
Q 23.53125 6.390625 29.59375 6.390625 
Q 36.859375 6.390625 41.078125 11.03125 
Q 45.3125 15.671875 45.3125 23.6875 
L 45.3125 54.6875 
L 54.296875 54.6875 
L 54.296875 0 
L 45.3125 0 
L 45.3125 8.40625 
Q 42.046875 3.421875 37.71875 1 
Q 33.40625 -1.421875 27.6875 -1.421875 
Q 18.265625 -1.421875 13.375 4.4375 
Q 8.5 10.296875 8.5 21.578125 
z
M 31.109375 56 
z
" id="DejaVuSans-75"/>
      <path d="M 54.890625 33.015625 
L 54.890625 0 
L 45.90625 0 
L 45.90625 32.71875 
Q 45.90625 40.484375 42.875 44.328125 
Q 39.84375 48.1875 33.796875 48.1875 
Q 26.515625 48.1875 22.3125 43.546875 
Q 18.109375 38.921875 18.109375 30.90625 
L 18.109375 0 
L 9.078125 0 
L 9.078125 54.6875 
L 18.109375 54.6875 
L 18.109375 46.1875 
Q 21.34375 51.125 25.703125 53.5625 
Q 30.078125 56 35.796875 56 
Q 45.21875 56 50.046875 50.171875 
Q 54.890625 44.34375 54.890625 33.015625 
z
" id="DejaVuSans-6e"/>
      <path d="M 48.78125 52.59375 
L 48.78125 44.1875 
Q 44.96875 46.296875 41.140625 47.34375 
Q 37.3125 48.390625 33.40625 48.390625 
Q 24.65625 48.390625 19.8125 42.84375 
Q 14.984375 37.3125 14.984375 27.296875 
Q 14.984375 17.28125 19.8125 11.734375 
Q 24.65625 6.203125 33.40625 6.203125 
Q 37.3125 6.203125 41.140625 7.25 
Q 44.96875 8.296875 48.78125 10.40625 
L 48.78125 2.09375 
Q 45.015625 0.34375 40.984375 -0.53125 
Q 36.96875 -1.421875 32.421875 -1.421875 
Q 20.0625 -1.421875 12.78125 6.34375 
Q 5.515625 14.109375 5.515625 27.296875 
Q 5.515625 40.671875 12.859375 48.328125 
Q 20.21875 56 33.015625 56 
Q 37.15625 56 41.109375 55.140625 
Q 45.0625 54.296875 48.78125 52.59375 
z
" id="DejaVuSans-63"/>
      <path d="M 32.171875 -5.078125 
Q 28.375 -14.84375 24.75 -17.8125 
Q 21.140625 -20.796875 15.09375 -20.796875 
L 7.90625 -20.796875 
L 7.90625 -13.28125 
L 13.1875 -13.28125 
Q 16.890625 -13.28125 18.9375 -11.515625 
Q 21 -9.765625 23.484375 -3.21875 
L 25.09375 0.875 
L 2.984375 54.6875 
L 12.5 54.6875 
L 29.59375 11.921875 
L 46.6875 54.6875 
L 56.203125 54.6875 
z
" id="DejaVuSans-79"/>
      <path id="DejaVuSans-20"/>
      <path d="M 31 75.875 
Q 24.46875 64.65625 21.28125 53.65625 
Q 18.109375 42.671875 18.109375 31.390625 
Q 18.109375 20.125 21.3125 9.0625 
Q 24.515625 -2 31 -13.1875 
L 23.1875 -13.1875 
Q 15.875 -1.703125 12.234375 9.375 
Q 8.59375 20.453125 8.59375 31.390625 
Q 8.59375 42.28125 12.203125 53.3125 
Q 15.828125 64.359375 23.1875 75.875 
z
" id="DejaVuSans-28"/>
      <path d="M 9.8125 72.90625 
L 19.671875 72.90625 
L 19.671875 43.015625 
L 55.515625 43.015625 
L 55.515625 72.90625 
L 65.375 72.90625 
L 65.375 0 
L 55.515625 0 
L 55.515625 34.71875 
L 19.671875 34.71875 
L 19.671875 0 
L 9.8125 0 
z
" id="DejaVuSans-48"/>
      <path d="M 5.515625 54.6875 
L 48.1875 54.6875 
L 48.1875 46.484375 
L 14.40625 7.171875 
L 48.1875 7.171875 
L 48.1875 0 
L 4.296875 0 
L 4.296875 8.203125 
L 38.09375 47.515625 
L 5.515625 47.515625 
z
" id="DejaVuSans-7a"/>
      <path d="M 8.015625 75.875 
L 15.828125 75.875 
Q 23.140625 64.359375 26.78125 53.3125 
Q 30.421875 42.28125 30.421875 31.390625 
Q 30.421875 20.453125 26.78125 9.375 
Q 23.140625 -1.703125 15.828125 -13.1875 
L 8.015625 -13.1875 
Q 14.5 -2 17.703125 9.0625 
Q 20.90625 20.125 20.90625 31.390625 
Q 20.90625 42.671875 17.703125 53.65625 
Q 14.5 64.65625 8.015625 75.875 
z
" id="DejaVuSans-29"/>
     </defs>
     <g transform="translate(268.316788 274.316562)scale(0.1 -0.1)">
      <use xlink:href="#DejaVuSans-46"/>
      <use x="57.410156" xlink:href="#DejaVuSans-72"/>
      <use x="98.492188" xlink:href="#DejaVuSans-65"/>
      <use x="160.015625" xlink:href="#DejaVuSans-71"/>
      <use x="223.492188" xlink:href="#DejaVuSans-75"/>
      <use x="286.871094" xlink:href="#DejaVuSans-65"/>
      <use x="348.394531" xlink:href="#DejaVuSans-6e"/>
      <use x="411.773438" xlink:href="#DejaVuSans-63"/>
      <use x="466.753906" xlink:href="#DejaVuSans-79"/>
      <use x="525.933594" xlink:href="#DejaVuSans-20"/>
      <use x="557.720703" xlink:href="#DejaVuSans-28"/>
      <use x="596.734375" xlink:href="#DejaVuSans-48"/>
      <use x="671.929688" xlink:href="#DejaVuSans-7a"/>
      <use x="724.419922" xlink:href="#DejaVuSans-29"/>
     </g>
    </g>
   </g>
   <g id="matplotlib.axis_2">
    <g id="ytick_1">
     <g id="line2d_7">
      <defs>
       <path d="M 0 0 
L -3.5 0 
" id="ma879ce86f7" style="stroke:#000000;stroke-width:0.8;"/>
      </defs>
      <g>
       <use style="stroke:#000000;stroke-width:0.8;" x="60.423889" xlink:href="#ma879ce86f7" y="226.484793"/>
      </g>
     </g>
     <g id="text_8">
      <!-- $\mathdefault{10^{-11}}$ -->
      <defs>
       <path d="M 10.59375 35.5 
L 73.1875 35.5 
L 73.1875 27.203125 
L 10.59375 27.203125 
z
" id="DejaVuSans-2212"/>
      </defs>
      <g transform="translate(25.523889 230.284012)scale(0.1 -0.1)">
       <use transform="translate(0 0.684375)" xlink:href="#DejaVuSans-31"/>
       <use transform="translate(63.623047 0.684375)" xlink:href="#DejaVuSans-30"/>
       <use transform="translate(128.203125 38.965625)scale(0.7)" xlink:href="#DejaVuSans-2212"/>
       <use transform="translate(186.855469 38.965625)scale(0.7)" xlink:href="#DejaVuSans-31"/>
       <use transform="translate(231.391602 38.965625)scale(0.7)" xlink:href="#DejaVuSans-31"/>
      </g>
     </g>
    </g>
    <g id="ytick_2">
     <g id="line2d_8">
      <g>
       <use style="stroke:#000000;stroke-width:0.8;" x="60.423889" xlink:href="#ma879ce86f7" y="179.48113"/>
      </g>
     </g>
     <g id="text_9">
      <!-- $\mathdefault{10^{-10}}$ -->
      <g transform="translate(25.523889 183.280348)scale(0.1 -0.1)">
       <use transform="translate(0 0.765625)" xlink:href="#DejaVuSans-31"/>
       <use transform="translate(63.623047 0.765625)" xlink:href="#DejaVuSans-30"/>
       <use transform="translate(128.203125 39.046875)scale(0.7)" xlink:href="#DejaVuSans-2212"/>
       <use transform="translate(186.855469 39.046875)scale(0.7)" xlink:href="#DejaVuSans-31"/>
       <use transform="translate(231.391602 39.046875)scale(0.7)" xlink:href="#DejaVuSans-30"/>
      </g>
     </g>
    </g>
    <g id="ytick_3">
     <g id="line2d_9">
      <g>
       <use style="stroke:#000000;stroke-width:0.8;" x="60.423889" xlink:href="#ma879ce86f7" y="132.477466"/>
      </g>
     </g>
     <g id="text_10">
      <!-- $\mathdefault{10^{-9}}$ -->
      <defs>
       <path d="M 10.984375 1.515625 
L 10.984375 10.5 
Q 14.703125 8.734375 18.5 7.8125 
Q 22.3125 6.890625 25.984375 6.890625 
Q 35.75 6.890625 40.890625 13.453125 
Q 46.046875 20.015625 46.78125 33.40625 
Q 43.953125 29.203125 39.59375 26.953125 
Q 35.25 24.703125 29.984375 24.703125 
Q 19.046875 24.703125 12.671875 31.3125 
Q 6.296875 37.9375 6.296875 49.421875 
Q 6.296875 60.640625 12.9375 67.421875 
Q 19.578125 74.21875 30.609375 74.21875 
Q 43.265625 74.21875 49.921875 64.515625 
Q 56.59375 54.828125 56.59375 36.375 
Q 56.59375 19.140625 48.40625 8.859375 
Q 40.234375 -1.421875 26.421875 -1.421875 
Q 22.703125 -1.421875 18.890625 -0.6875 
Q 15.09375 0.046875 10.984375 1.515625 
z
M 30.609375 32.421875 
Q 37.25 32.421875 41.125 36.953125 
Q 45.015625 41.5 45.015625 49.421875 
Q 45.015625 57.28125 41.125 61.84375 
Q 37.25 66.40625 30.609375 66.40625 
Q 23.96875 66.40625 20.09375 61.84375 
Q 16.21875 57.28125 16.21875 49.421875 
Q 16.21875 41.5 20.09375 36.953125 
Q 23.96875 32.421875 30.609375 32.421875 
z
" id="DejaVuSans-39"/>
      </defs>
      <g transform="translate(29.923889 136.276684)scale(0.1 -0.1)">
       <use transform="translate(0 0.765625)" xlink:href="#DejaVuSans-31"/>
       <use transform="translate(63.623047 0.765625)" xlink:href="#DejaVuSans-30"/>
       <use transform="translate(128.203125 39.046875)scale(0.7)" xlink:href="#DejaVuSans-2212"/>
       <use transform="translate(186.855469 39.046875)scale(0.7)" xlink:href="#DejaVuSans-39"/>
      </g>
     </g>
    </g>
    <g id="ytick_4">
     <g id="line2d_10">
      <g>
       <use style="stroke:#000000;stroke-width:0.8;" x="60.423889" xlink:href="#ma879ce86f7" y="85.473802"/>
      </g>
     </g>
     <g id="text_11">
      <!-- $\mathdefault{10^{-8}}$ -->
      <g transform="translate(29.923889 89.273021)scale(0.1 -0.1)">
       <use transform="translate(0 0.765625)" xlink:href="#DejaVuSans-31"/>
       <use transform="translate(63.623047 0.765625)" xlink:href="#DejaVuSans-30"/>
       <use transform="translate(128.203125 39.046875)scale(0.7)" xlink:href="#DejaVuSans-2212"/>
       <use transform="translate(186.855469 39.046875)scale(0.7)" xlink:href="#DejaVuSans-38"/>
      </g>
     </g>
    </g>
    <g id="ytick_5">
     <g id="line2d_11">
      <g>
       <use style="stroke:#000000;stroke-width:0.8;" x="60.423889" xlink:href="#ma879ce86f7" y="38.470138"/>
      </g>
     </g>
     <g id="text_12">
      <!-- $\mathdefault{10^{-7}}$ -->
      <defs>
       <path d="M 8.203125 72.90625 
L 55.078125 72.90625 
L 55.078125 68.703125 
L 28.609375 0 
L 18.3125 0 
L 43.21875 64.59375 
L 8.203125 64.59375 
z
" id="DejaVuSans-37"/>
      </defs>
      <g transform="translate(29.923889 42.269357)scale(0.1 -0.1)">
       <use transform="translate(0 0.684375)" xlink:href="#DejaVuSans-31"/>
       <use transform="translate(63.623047 0.684375)" xlink:href="#DejaVuSans-30"/>
       <use transform="translate(128.203125 38.965625)scale(0.7)" xlink:href="#DejaVuSans-2212"/>
       <use transform="translate(186.855469 38.965625)scale(0.7)" xlink:href="#DejaVuSans-37"/>
      </g>
     </g>
    </g>
    <g id="ytick_6">
     <g id="line2d_12">
      <defs>
       <path d="M 0 0 
L -2 0 
" id="m60a28fdad8" style="stroke:#000000;stroke-width:0.6;"/>
      </defs>
      <g>
       <use style="stroke:#000000;stroke-width:0.6;" x="60.423889" xlink:href="#m60a28fdad8" y="245.189432"/>
      </g>
     </g>
    </g>
    <g id="ytick_7">
     <g id="line2d_13">
      <g>
       <use style="stroke:#000000;stroke-width:0.6;" x="60.423889" xlink:href="#m60a28fdad8" y="240.634306"/>
      </g>
     </g>
    </g>
    <g id="ytick_8">
     <g id="line2d_14">
      <g>
       <use style="stroke:#000000;stroke-width:0.6;" x="60.423889" xlink:href="#m60a28fdad8" y="236.912497"/>
      </g>
     </g>
    </g>
    <g id="ytick_9">
     <g id="line2d_15">
      <g>
       <use style="stroke:#000000;stroke-width:0.6;" x="60.423889" xlink:href="#m60a28fdad8" y="233.765753"/>
      </g>
     </g>
    </g>
    <g id="ytick_10">
     <g id="line2d_16">
      <g>
       <use style="stroke:#000000;stroke-width:0.6;" x="60.423889" xlink:href="#m60a28fdad8" y="231.039919"/>
      </g>
     </g>
    </g>
    <g id="ytick_11">
     <g id="line2d_17">
      <g>
       <use style="stroke:#000000;stroke-width:0.6;" x="60.423889" xlink:href="#m60a28fdad8" y="228.635563"/>
      </g>
     </g>
    </g>
    <g id="ytick_12">
     <g id="line2d_18">
      <g>
       <use style="stroke:#000000;stroke-width:0.6;" x="60.423889" xlink:href="#m60a28fdad8" y="212.335281"/>
      </g>
     </g>
    </g>
    <g id="ytick_13">
     <g id="line2d_19">
      <g>
       <use style="stroke:#000000;stroke-width:0.6;" x="60.423889" xlink:href="#m60a28fdad8" y="204.058346"/>
      </g>
     </g>
    </g>
    <g id="ytick_14">
     <g id="line2d_20">
      <g>
       <use style="stroke:#000000;stroke-width:0.6;" x="60.423889" xlink:href="#m60a28fdad8" y="198.185768"/>
      </g>
     </g>
    </g>
    <g id="ytick_15">
     <g id="line2d_21">
      <g>
       <use style="stroke:#000000;stroke-width:0.6;" x="60.423889" xlink:href="#m60a28fdad8" y="193.630642"/>
      </g>
     </g>
    </g>
    <g id="ytick_16">
     <g id="line2d_22">
      <g>
       <use style="stroke:#000000;stroke-width:0.6;" x="60.423889" xlink:href="#m60a28fdad8" y="189.908834"/>
      </g>
     </g>
    </g>
    <g id="ytick_17">
     <g id="line2d_23">
      <g>
       <use style="stroke:#000000;stroke-width:0.6;" x="60.423889" xlink:href="#m60a28fdad8" y="186.762089"/>
      </g>
     </g>
    </g>
    <g id="ytick_18">
     <g id="line2d_24">
      <g>
       <use style="stroke:#000000;stroke-width:0.6;" x="60.423889" xlink:href="#m60a28fdad8" y="184.036255"/>
      </g>
     </g>
    </g>
    <g id="ytick_19">
     <g id="line2d_25">
      <g>
       <use style="stroke:#000000;stroke-width:0.6;" x="60.423889" xlink:href="#m60a28fdad8" y="181.631899"/>
      </g>
     </g>
    </g>
    <g id="ytick_20">
     <g id="line2d_26">
      <g>
       <use style="stroke:#000000;stroke-width:0.6;" x="60.423889" xlink:href="#m60a28fdad8" y="165.331617"/>
      </g>
     </g>
    </g>
    <g id="ytick_21">
     <g id="line2d_27">
      <g>
       <use style="stroke:#000000;stroke-width:0.6;" x="60.423889" xlink:href="#m60a28fdad8" y="157.054682"/>
      </g>
     </g>
    </g>
    <g id="ytick_22">
     <g id="line2d_28">
      <g>
       <use style="stroke:#000000;stroke-width:0.6;" x="60.423889" xlink:href="#m60a28fdad8" y="151.182104"/>
      </g>
     </g>
    </g>
    <g id="ytick_23">
     <g id="line2d_29">
      <g>
       <use style="stroke:#000000;stroke-width:0.6;" x="60.423889" xlink:href="#m60a28fdad8" y="146.626978"/>
      </g>
     </g>
    </g>
    <g id="ytick_24">
     <g id="line2d_30">
      <g>
       <use style="stroke:#000000;stroke-width:0.6;" x="60.423889" xlink:href="#m60a28fdad8" y="142.90517"/>
      </g>
     </g>
    </g>
    <g id="ytick_25">
     <g id="line2d_31">
      <g>
       <use style="stroke:#000000;stroke-width:0.6;" x="60.423889" xlink:href="#m60a28fdad8" y="139.758425"/>
      </g>
     </g>
    </g>
    <g id="ytick_26">
     <g id="line2d_32">
      <g>
       <use style="stroke:#000000;stroke-width:0.6;" x="60.423889" xlink:href="#m60a28fdad8" y="137.032591"/>
      </g>
     </g>
    </g>
    <g id="ytick_27">
     <g id="line2d_33">
      <g>
       <use style="stroke:#000000;stroke-width:0.6;" x="60.423889" xlink:href="#m60a28fdad8" y="134.628235"/>
      </g>
     </g>
    </g>
    <g id="ytick_28">
     <g id="line2d_34">
      <g>
       <use style="stroke:#000000;stroke-width:0.6;" x="60.423889" xlink:href="#m60a28fdad8" y="118.327953"/>
      </g>
     </g>
    </g>
    <g id="ytick_29">
     <g id="line2d_35">
      <g>
       <use style="stroke:#000000;stroke-width:0.6;" x="60.423889" xlink:href="#m60a28fdad8" y="110.051019"/>
      </g>
     </g>
    </g>
    <g id="ytick_30">
     <g id="line2d_36">
      <g>
       <use style="stroke:#000000;stroke-width:0.6;" x="60.423889" xlink:href="#m60a28fdad8" y="104.17844"/>
      </g>
     </g>
    </g>
    <g id="ytick_31">
     <g id="line2d_37">
      <g>
       <use style="stroke:#000000;stroke-width:0.6;" x="60.423889" xlink:href="#m60a28fdad8" y="99.623315"/>
      </g>
     </g>
    </g>
    <g id="ytick_32">
     <g id="line2d_38">
      <g>
       <use style="stroke:#000000;stroke-width:0.6;" x="60.423889" xlink:href="#m60a28fdad8" y="95.901506"/>
      </g>
     </g>
    </g>
    <g id="ytick_33">
     <g id="line2d_39">
      <g>
       <use style="stroke:#000000;stroke-width:0.6;" x="60.423889" xlink:href="#m60a28fdad8" y="92.754762"/>
      </g>
     </g>
    </g>
    <g id="ytick_34">
     <g id="line2d_40">
      <g>
       <use style="stroke:#000000;stroke-width:0.6;" x="60.423889" xlink:href="#m60a28fdad8" y="90.028928"/>
      </g>
     </g>
    </g>
    <g id="ytick_35">
     <g id="line2d_41">
      <g>
       <use style="stroke:#000000;stroke-width:0.6;" x="60.423889" xlink:href="#m60a28fdad8" y="87.624572"/>
      </g>
     </g>
    </g>
    <g id="ytick_36">
     <g id="line2d_42">
      <g>
       <use style="stroke:#000000;stroke-width:0.6;" x="60.423889" xlink:href="#m60a28fdad8" y="71.324289"/>
      </g>
     </g>
    </g>
    <g id="ytick_37">
     <g id="line2d_43">
      <g>
       <use style="stroke:#000000;stroke-width:0.6;" x="60.423889" xlink:href="#m60a28fdad8" y="63.047355"/>
      </g>
     </g>
    </g>
    <g id="ytick_38">
     <g id="line2d_44">
      <g>
       <use style="stroke:#000000;stroke-width:0.6;" x="60.423889" xlink:href="#m60a28fdad8" y="57.174776"/>
      </g>
     </g>
    </g>
    <g id="ytick_39">
     <g id="line2d_45">
      <g>
       <use style="stroke:#000000;stroke-width:0.6;" x="60.423889" xlink:href="#m60a28fdad8" y="52.619651"/>
      </g>
     </g>
    </g>
    <g id="ytick_40">
     <g id="line2d_46">
      <g>
       <use style="stroke:#000000;stroke-width:0.6;" x="60.423889" xlink:href="#m60a28fdad8" y="48.897842"/>
      </g>
     </g>
    </g>
    <g id="ytick_41">
     <g id="line2d_47">
      <g>
       <use style="stroke:#000000;stroke-width:0.6;" x="60.423889" xlink:href="#m60a28fdad8" y="45.751098"/>
      </g>
     </g>
    </g>
    <g id="ytick_42">
     <g id="line2d_48">
      <g>
       <use style="stroke:#000000;stroke-width:0.6;" x="60.423889" xlink:href="#m60a28fdad8" y="43.025264"/>
      </g>
     </g>
    </g>
    <g id="ytick_43">
     <g id="line2d_49">
      <g>
       <use style="stroke:#000000;stroke-width:0.6;" x="60.423889" xlink:href="#m60a28fdad8" y="40.620908"/>
      </g>
     </g>
    </g>
    <g id="ytick_44">
     <g id="line2d_50">
      <g>
       <use style="stroke:#000000;stroke-width:0.6;" x="60.423889" xlink:href="#m60a28fdad8" y="24.320625"/>
      </g>
     </g>
    </g>
    <g id="ytick_45">
     <g id="line2d_51">
      <g>
       <use style="stroke:#000000;stroke-width:0.6;" x="60.423889" xlink:href="#m60a28fdad8" y="16.043691"/>
      </g>
     </g>
    </g>
    <g id="text_13">
     <!-- Displacement (m) -->
     <defs>
      <path d="M 19.671875 64.796875 
L 19.671875 8.109375 
L 31.59375 8.109375 
Q 46.6875 8.109375 53.6875 14.9375 
Q 60.6875 21.78125 60.6875 36.53125 
Q 60.6875 51.171875 53.6875 57.984375 
Q 46.6875 64.796875 31.59375 64.796875 
z
M 9.8125 72.90625 
L 30.078125 72.90625 
Q 51.265625 72.90625 61.171875 64.09375 
Q 71.09375 55.28125 71.09375 36.53125 
Q 71.09375 17.671875 61.125 8.828125 
Q 51.171875 0 30.078125 0 
L 9.8125 0 
z
" id="DejaVuSans-44"/>
      <path d="M 9.421875 54.6875 
L 18.40625 54.6875 
L 18.40625 0 
L 9.421875 0 
z
M 9.421875 75.984375 
L 18.40625 75.984375 
L 18.40625 64.59375 
L 9.421875 64.59375 
z
" id="DejaVuSans-69"/>
      <path d="M 44.28125 53.078125 
L 44.28125 44.578125 
Q 40.484375 46.53125 36.375 47.5 
Q 32.28125 48.484375 27.875 48.484375 
Q 21.1875 48.484375 17.84375 46.4375 
Q 14.5 44.390625 14.5 40.28125 
Q 14.5 37.15625 16.890625 35.375 
Q 19.28125 33.59375 26.515625 31.984375 
L 29.59375 31.296875 
Q 39.15625 29.25 43.1875 25.515625 
Q 47.21875 21.78125 47.21875 15.09375 
Q 47.21875 7.46875 41.1875 3.015625 
Q 35.15625 -1.421875 24.609375 -1.421875 
Q 20.21875 -1.421875 15.453125 -0.5625 
Q 10.6875 0.296875 5.421875 2 
L 5.421875 11.28125 
Q 10.40625 8.6875 15.234375 7.390625 
Q 20.0625 6.109375 24.8125 6.109375 
Q 31.15625 6.109375 34.5625 8.28125 
Q 37.984375 10.453125 37.984375 14.40625 
Q 37.984375 18.0625 35.515625 20.015625 
Q 33.0625 21.96875 24.703125 23.78125 
L 21.578125 24.515625 
Q 13.234375 26.265625 9.515625 29.90625 
Q 5.8125 33.546875 5.8125 39.890625 
Q 5.8125 47.609375 11.28125 51.796875 
Q 16.75 56 26.8125 56 
Q 31.78125 56 36.171875 55.265625 
Q 40.578125 54.546875 44.28125 53.078125 
z
" id="DejaVuSans-73"/>
      <path d="M 18.109375 8.203125 
L 18.109375 -20.796875 
L 9.078125 -20.796875 
L 9.078125 54.6875 
L 18.109375 54.6875 
L 18.109375 46.390625 
Q 20.953125 51.265625 25.265625 53.625 
Q 29.59375 56 35.59375 56 
Q 45.5625 56 51.78125 48.09375 
Q 58.015625 40.1875 58.015625 27.296875 
Q 58.015625 14.40625 51.78125 6.484375 
Q 45.5625 -1.421875 35.59375 -1.421875 
Q 29.59375 -1.421875 25.265625 0.953125 
Q 20.953125 3.328125 18.109375 8.203125 
z
M 48.6875 27.296875 
Q 48.6875 37.203125 44.609375 42.84375 
Q 40.53125 48.484375 33.40625 48.484375 
Q 26.265625 48.484375 22.1875 42.84375 
Q 18.109375 37.203125 18.109375 27.296875 
Q 18.109375 17.390625 22.1875 11.75 
Q 26.265625 6.109375 33.40625 6.109375 
Q 40.53125 6.109375 44.609375 11.75 
Q 48.6875 17.390625 48.6875 27.296875 
z
" id="DejaVuSans-70"/>
      <path d="M 9.421875 75.984375 
L 18.40625 75.984375 
L 18.40625 0 
L 9.421875 0 
z
" id="DejaVuSans-6c"/>
      <path d="M 34.28125 27.484375 
Q 23.390625 27.484375 19.1875 25 
Q 14.984375 22.515625 14.984375 16.5 
Q 14.984375 11.71875 18.140625 8.90625 
Q 21.296875 6.109375 26.703125 6.109375 
Q 34.1875 6.109375 38.703125 11.40625 
Q 43.21875 16.703125 43.21875 25.484375 
L 43.21875 27.484375 
z
M 52.203125 31.203125 
L 52.203125 0 
L 43.21875 0 
L 43.21875 8.296875 
Q 40.140625 3.328125 35.546875 0.953125 
Q 30.953125 -1.421875 24.3125 -1.421875 
Q 15.921875 -1.421875 10.953125 3.296875 
Q 6 8.015625 6 15.921875 
Q 6 25.140625 12.171875 29.828125 
Q 18.359375 34.515625 30.609375 34.515625 
L 43.21875 34.515625 
L 43.21875 35.40625 
Q 43.21875 41.609375 39.140625 45 
Q 35.0625 48.390625 27.6875 48.390625 
Q 23 48.390625 18.546875 47.265625 
Q 14.109375 46.140625 10.015625 43.890625 
L 10.015625 52.203125 
Q 14.9375 54.109375 19.578125 55.046875 
Q 24.21875 56 28.609375 56 
Q 40.484375 56 46.34375 49.84375 
Q 52.203125 43.703125 52.203125 31.203125 
z
" id="DejaVuSans-61"/>
      <path d="M 52 44.1875 
Q 55.375 50.25 60.0625 53.125 
Q 64.75 56 71.09375 56 
Q 79.640625 56 84.28125 50.015625 
Q 88.921875 44.046875 88.921875 33.015625 
L 88.921875 0 
L 79.890625 0 
L 79.890625 32.71875 
Q 79.890625 40.578125 77.09375 44.375 
Q 74.3125 48.1875 68.609375 48.1875 
Q 61.625 48.1875 57.5625 43.546875 
Q 53.515625 38.921875 53.515625 30.90625 
L 53.515625 0 
L 44.484375 0 
L 44.484375 32.71875 
Q 44.484375 40.625 41.703125 44.40625 
Q 38.921875 48.1875 33.109375 48.1875 
Q 26.21875 48.1875 22.15625 43.53125 
Q 18.109375 38.875 18.109375 30.90625 
L 18.109375 0 
L 9.078125 0 
L 9.078125 54.6875 
L 18.109375 54.6875 
L 18.109375 46.1875 
Q 21.1875 51.21875 25.484375 53.609375 
Q 29.78125 56 35.6875 56 
Q 41.65625 56 45.828125 52.96875 
Q 50 49.953125 52 44.1875 
z
" id="DejaVuSans-6d"/>
      <path d="M 18.3125 70.21875 
L 18.3125 54.6875 
L 36.8125 54.6875 
L 36.8125 47.703125 
L 18.3125 47.703125 
L 18.3125 18.015625 
Q 18.3125 11.328125 20.140625 9.421875 
Q 21.96875 7.515625 27.59375 7.515625 
L 36.8125 7.515625 
L 36.8125 0 
L 27.59375 0 
Q 17.1875 0 13.234375 3.875 
Q 9.28125 7.765625 9.28125 18.015625 
L 9.28125 47.703125 
L 2.6875 47.703125 
L 2.6875 54.6875 
L 9.28125 54.6875 
L 9.28125 70.21875 
z
" id="DejaVuSans-74"/>
     </defs>
     <g transform="translate(19.444202 174.413594)rotate(-90)scale(0.1 -0.1)">
      <use xlink:href="#DejaVuSans-44"/>
      <use x="77.001953" xlink:href="#DejaVuSans-69"/>
      <use x="104.785156" xlink:href="#DejaVuSans-73"/>
      <use x="156.884766" xlink:href="#DejaVuSans-70"/>
      <use x="220.361328" xlink:href="#DejaVuSans-6c"/>
      <use x="248.144531" xlink:href="#DejaVuSans-61"/>
      <use x="309.423828" xlink:href="#DejaVuSans-63"/>
      <use x="364.404297" xlink:href="#DejaVuSans-65"/>
      <use x="425.927734" xlink:href="#DejaVuSans-6d"/>
      <use x="523.339844" xlink:href="#DejaVuSans-65"/>
      <use x="584.863281" xlink:href="#DejaVuSans-6e"/>
      <use x="648.242188" xlink:href="#DejaVuSans-74"/>
      <use x="687.451172" xlink:href="#DejaVuSans-20"/>
      <use x="719.238281" xlink:href="#DejaVuSans-28"/>
      <use x="758.251953" xlink:href="#DejaVuSans-6d"/>
      <use x="855.664062" xlink:href="#DejaVuSans-29"/>
     </g>
    </g>
   </g>
   <g id="line2d_52">
    <path clip-path="url(#p38c7154b22)" d="M 60.91602 105.243839 
L 61.408152 105.062642 
L 61.900283 104.756018 
L 62.884545 103.733015 
L 63.868807 102.064192 
L 64.853069 99.533001 
L 65.3452 97.82286 
L 65.837332 95.704483 
L 66.329463 93.035265 
L 66.821594 89.576039 
L 67.313725 84.882102 
L 67.805856 77.975256 
L 68.297987 65.902924 
L 68.790118 23.898182 
L 69.282249 63.802852 
L 69.77438 80.191668 
L 70.266512 90.025585 
L 71.250774 103.324638 
L 72.235036 113.253318 
L 75.679954 144.772544 
L 76.172085 150.971456 
L 76.664216 158.832368 
L 77.156347 170.262339 
L 77.648478 193.77223 
L 78.140609 189.83941 
L 78.63274 170.241687 
L 79.124872 160.565854 
L 79.617003 154.11145 
L 80.601265 145.241102 
L 81.585527 138.791661 
L 83.06192 130.873187 
L 85.522576 118.13848 
L 86.506838 112.058416 
L 87.4911 104.445917 
L 87.983232 99.59655 
L 88.475363 93.503502 
L 88.967494 85.163037 
L 89.459625 71.664958 
L 89.951756 44.936761 
L 90.443887 69.821788 
L 90.936018 83.442083 
L 91.428149 91.497343 
L 91.92028 97.175782 
L 92.904543 105.075169 
L 93.888805 110.567842 
L 94.873067 114.72771 
L 95.857329 118.02121 
L 96.841592 120.681937 
L 97.825854 122.826892 
L 98.810116 124.495655 
L 99.794378 125.649926 
L 100.286509 125.990395 
L 100.77864 126.123493 
L 101.270772 125.979256 
L 101.762903 125.434108 
L 102.255034 124.251083 
L 102.747165 121.910447 
L 103.239296 116.983375 
L 103.731427 102.834388 
L 104.223558 103.979312 
L 105.20782 185.118248 
L 106.192083 160.250853 
L 106.684214 155.731872 
L 107.176345 153.413723 
L 107.668476 152.09425 
L 108.160607 151.315379 
L 108.652738 150.861189 
L 109.144869 150.6161 
L 110.129132 150.507632 
L 111.113394 150.692836 
L 112.589787 151.245894 
L 115.050443 152.469639 
L 122.92454 156.555136 
L 126.861589 158.314297 
L 130.798638 159.836039 
L 134.735687 161.116953 
L 138.672736 162.14819 
L 142.117654 162.821837 
L 145.07044 163.187207 
L 147.531096 163.280319 
L 149.49962 163.137097 
L 150.976014 162.818137 
L 151.960276 162.440024 
L 152.944538 161.845923 
L 153.9288 160.887187 
L 154.420931 160.180786 
L 154.913063 159.230493 
L 155.405194 157.904805 
L 155.897325 155.964183 
L 156.389456 152.953722 
L 156.881587 148.260016 
L 157.373718 146.495613 
L 158.35798 184.48966 
L 158.850111 187.619935 
L 159.342243 182.311819 
L 159.834374 178.731401 
L 160.326505 176.46774 
L 160.818636 174.942668 
L 161.310767 173.854271 
L 162.295029 172.413643 
L 163.279291 171.507329 
L 164.263554 170.884452 
L 165.739947 170.240389 
L 167.708471 169.66178 
L 171.153389 168.959902 
L 179.027487 167.449638 
L 181.980274 166.644715 
L 184.440929 165.742878 
L 186.409454 164.764521 
L 187.885847 163.78138 
L 188.870109 162.938514 
L 189.854371 161.866843 
L 190.838634 160.442659 
L 191.822896 158.431302 
L 192.315027 157.067887 
L 192.807158 155.331114 
L 193.299289 153.041688 
L 193.79142 149.90798 
L 194.775683 140.545136 
L 195.267814 142.671789 
L 196.252076 169.917386 
L 196.744207 184.124453 
L 197.236338 194.421603 
L 197.728469 193.16709 
L 198.712731 184.409383 
L 199.204863 181.603318 
L 200.189125 177.892898 
L 201.173387 175.534653 
L 202.157649 173.870082 
L 203.141911 172.603247 
L 204.618305 171.138705 
L 206.094698 169.980733 
L 208.063223 168.701848 
L 211.016009 167.071032 
L 218.397976 163.388607 
L 223.319287 160.788171 
L 227.256336 158.465543 
L 230.701254 156.177516 
L 233.65404 153.966521 
L 236.606827 151.458321 
L 239.067483 149.077981 
L 241.528138 146.356746 
L 243.496663 143.863868 
L 245.465187 141.004676 
L 247.433711 137.658999 
L 248.910105 134.719756 
L 250.386498 131.275483 
L 251.862891 127.124066 
L 252.847154 123.800161 
L 253.831416 119.838474 
L 254.815678 114.953042 
L 255.79994 108.63334 
L 256.784203 99.942242 
L 257.768465 88.4759 
L 258.260596 85.334447 
L 258.752727 88.333543 
L 259.736989 99.81821 
L 260.721251 108.566162 
L 261.705514 114.925808 
L 262.689776 119.841442 
L 263.674038 123.827803 
L 265.150431 128.662987 
L 266.626825 132.57624 
L 268.103218 135.858704 
L 269.579611 138.682509 
L 271.548136 141.918886 
L 273.51666 144.700643 
L 275.485185 147.135764 
L 277.94584 149.801436 
L 280.406496 152.136292 
L 283.359282 154.594214 
L 286.312069 156.751827 
L 289.756987 158.963369 
L 293.201905 160.905174 
L 297.138954 162.851283 
L 301.076002 164.551902 
L 305.505182 166.214433 
L 309.934362 167.645665 
L 314.855674 168.995289 
L 319.776985 170.11447 
L 324.698296 171.018329 
L 330.111738 171.773848 
L 335.033049 172.245252 
L 339.95436 172.507572 
L 344.875671 172.55012 
L 349.796982 172.356542 
L 354.226162 171.961246 
L 358.655342 171.335809 
L 363.084522 170.462273 
L 367.513702 169.348853 
L 373.419276 167.820634 
L 374.895669 167.667511 
L 375.879931 167.755592 
L 376.864193 168.136223 
L 377.356325 168.504405 
L 377.848456 169.045915 
L 378.340587 169.80576 
L 379.324849 171.670414 
L 379.81698 171.121213 
L 380.309111 166.322468 
L 381.293373 149.667374 
L 381.785505 146.467278 
L 382.277636 146.352999 
L 383.261898 147.619716 
L 383.754029 147.991736 
L 384.24616 148.140116 
L 384.738291 148.100275 
L 385.230422 147.905145 
L 386.214685 147.141499 
L 387.198947 145.971406 
L 388.183209 144.445644 
L 389.167471 142.570695 
L 390.151733 140.320403 
L 391.135996 137.637829 
L 392.120258 134.430236 
L 393.10452 130.559899 
L 394.088782 125.842962 
L 395.073045 120.139407 
L 396.057307 113.984836 
L 396.549438 111.634685 
L 397.041569 110.748275 
L 397.5337 111.720532 
L 398.025831 114.094782 
L 399.994356 125.662788 
L 400.978618 130.172971 
L 401.96288 133.810907 
L 402.947142 136.748861 
L 403.931405 139.112208 
L 404.915667 140.981038 
L 405.899929 142.399881 
L 406.884191 143.383854 
L 407.868453 143.920393 
L 408.360585 144.008654 
L 408.852716 143.965784 
L 409.344847 143.779852 
L 409.836978 143.435118 
L 410.329109 142.911091 
L 410.82124 142.180939 
L 411.313371 141.209699 
L 411.805502 139.951366 
L 412.297633 138.345771 
L 412.789765 136.316243 
L 413.774027 130.659375 
L 414.758289 124.043815 
L 415.25042 123.790289 
L 415.742551 127.635313 
L 417.218945 144.765089 
L 418.203207 153.948514 
L 419.6796 164.95311 
L 421.155993 173.972066 
L 422.632387 181.781624 
L 424.600911 190.96375 
L 426.569436 199.149691 
L 428.53796 206.551208 
L 430.506485 213.235156 
L 432.475009 219.174296 
L 433.951402 223.088611 
L 435.427796 226.489918 
L 436.904189 229.337749 
L 438.380582 231.609703 
L 439.364845 232.805109 
L 440.349107 233.754033 
L 441.333369 234.470102 
L 442.317631 234.971189 
L 443.301893 235.278174 
L 444.286156 235.413442 
L 445.762549 235.344105 
L 447.238942 235.012717 
L 449.207467 234.274054 
L 451.668122 233.043563 
L 455.605171 230.742629 
L 464.463531 225.495041 
L 469.876973 222.596108 
L 475.782547 219.708162 
L 482.672382 216.596914 
L 504.326151 207.019449 
L 509.247462 204.502231 
L 513.184511 202.262739 
L 516.629429 200.070578 
L 519.582216 197.957803 
L 522.535002 195.555757 
L 524.995658 193.259972 
L 526.964182 191.169607 
L 528.932707 188.784787 
L 530.901231 186.011826 
L 532.377624 183.59465 
L 533.854018 180.791942 
L 535.330411 177.471968 
L 536.806804 173.431318 
L 537.791067 170.18361 
L 538.775329 166.336723 
L 539.759591 161.727952 
L 541.728116 150.933508 
L 542.220247 149.269881 
L 542.712378 149.118348 
L 543.204509 150.601958 
L 544.188771 156.256147 
L 545.665164 165.073495 
L 547.141558 172.128868 
L 548.617951 177.77802 
L 550.094344 182.47734 
L 551.570738 186.522246 
L 552.555 188.950675 
L 552.555 188.950675 
" style="fill:none;stroke:#1f77b4;stroke-linecap:square;stroke-width:5;"/>
   </g>
   <g id="line2d_53">
    <path clip-path="url(#p38c7154b22)" d="M 60.91602 105.24382 
L 61.408152 105.062664 
L 61.900283 104.756041 
L 62.884545 103.733004 
L 63.868807 102.064175 
L 64.853069 99.533003 
L 65.3452 97.822868 
L 65.837332 95.704511 
L 66.329463 93.035274 
L 66.821594 89.576062 
L 67.313725 84.882082 
L 67.805856 77.975337 
L 68.297987 65.903496 
L 68.790118 23.937162 
L 69.282249 63.803794 
L 69.77438 80.191819 
L 70.266512 90.025675 
L 71.250774 103.324653 
L 72.235036 113.253357 
L 75.679954 144.772367 
L 76.172085 150.971164 
L 76.664216 158.831756 
L 77.156347 170.260487 
L 77.648478 193.754636 
L 78.140609 189.827815 
L 78.63274 170.24005 
L 79.124872 160.565259 
L 79.617003 154.111141 
L 80.601265 145.241004 
L 81.585527 138.79164 
L 83.06192 130.873173 
L 85.522576 118.138634 
L 86.506838 112.058756 
L 87.4911 104.446594 
L 87.983232 99.597647 
L 88.475363 93.50549 
L 88.967494 85.16752 
L 89.459625 71.681519 
L 89.951756 45.15918 
L 90.443887 69.841237 
L 90.936018 83.447184 
L 91.428149 91.499631 
L 91.92028 97.177077 
L 92.904543 105.075758 
L 93.888805 110.568215 
L 94.873067 114.727937 
L 95.857329 118.021426 
L 96.841592 120.682067 
L 97.825854 122.826964 
L 98.810116 124.495774 
L 99.794378 125.650013 
L 100.286509 125.990476 
L 100.77864 126.123527 
L 101.270772 125.97931 
L 101.762903 125.434241 
L 102.255034 124.251106 
L 102.747165 121.91055 
L 103.239296 116.983487 
L 103.731427 102.834532 
L 104.223558 103.979472 
L 105.20782 185.121022 
L 106.192083 160.250829 
L 106.684214 155.73185 
L 107.176345 153.413723 
L 107.668476 152.094261 
L 108.160607 151.315347 
L 108.652738 150.861191 
L 109.144869 150.616117 
L 110.129132 150.507642 
L 111.113394 150.692821 
L 112.589787 151.245908 
L 115.050443 152.469622 
L 122.92454 156.555175 
L 126.861589 158.314313 
L 130.798638 159.836033 
L 134.735687 161.116962 
L 138.672736 162.1482 
L 142.117654 162.821958 
L 145.07044 163.187386 
L 147.531096 163.280523 
L 149.49962 163.137523 
L 150.976014 162.818973 
L 151.960276 162.441288 
L 152.944538 161.848149 
L 153.9288 160.89166 
L 154.420931 160.187523 
L 154.913063 159.241135 
L 155.405194 157.923269 
L 155.897325 156.000213 
L 156.389456 153.037489 
L 156.881587 148.509215 
L 157.373718 147.07961 
L 158.35798 183.926464 
L 158.850111 187.221268 
L 159.342243 182.186158 
L 159.834374 178.680543 
L 160.326505 176.442478 
L 160.818636 174.928295 
L 161.310767 173.84533 
L 162.295029 172.40952 
L 163.279291 171.505119 
L 164.263554 170.883199 
L 165.739947 170.239757 
L 167.708471 169.661515 
L 171.153389 168.959877 
L 179.027487 167.449993 
L 181.980274 166.645376 
L 184.440929 165.743997 
L 186.409454 164.766396 
L 187.885847 163.784385 
L 188.870109 162.943016 
L 189.854371 161.873879 
L 190.838634 160.454575 
L 191.822896 158.45403 
L 192.315027 157.101317 
L 192.807158 155.383187 
L 193.299289 153.129487 
L 193.79142 150.073123 
L 194.775683 141.387866 
L 195.267814 143.670962 
L 196.252076 169.847563 
L 196.744207 183.564308 
L 197.236338 193.335403 
L 197.728469 192.500522 
L 198.712731 184.266309 
L 199.204863 181.523148 
L 200.189125 177.860146 
L 201.173387 175.518126 
L 202.157649 173.860587 
L 203.141911 172.597463 
L 204.618305 171.135496 
L 206.094698 169.978898 
L 208.063223 168.700906 
L 211.016009 167.070837 
L 218.397976 163.389053 
L 223.319287 160.788927 
L 227.256336 158.466552 
L 230.701254 156.178844 
L 233.65404 153.968254 
L 236.606827 151.460592 
L 239.067483 149.080903 
L 241.528138 146.360645 
L 243.496663 143.86892 
L 245.465187 141.011435 
L 247.433711 137.668471 
L 248.910105 134.732497 
L 250.386498 131.29355 
L 251.862891 127.151341 
L 252.847154 123.83795 
L 253.831416 119.894455 
L 254.815678 115.043612 
L 255.79994 108.801687 
L 256.784203 100.334027 
L 257.768465 89.640144 
L 258.260596 86.890582 
L 258.752727 89.517617 
L 260.22912 104.824705 
L 261.213382 112.09702 
L 262.197645 117.597298 
L 263.181907 121.976574 
L 264.166169 125.601221 
L 265.642562 130.073595 
L 267.118956 133.74543 
L 268.595349 136.855775 
L 270.563874 140.374206 
L 272.532398 143.3648 
L 274.500922 145.961022 
L 276.961578 148.783086 
L 279.422234 151.240076 
L 281.882889 153.409435 
L 284.835676 155.708469 
L 287.788462 157.73773 
L 291.23338 159.826934 
L 294.678298 161.667567 
L 298.615347 163.516608 
L 302.552396 165.134507 
L 306.981576 166.716496 
L 311.410756 168.076662 
L 316.332067 169.354992 
L 321.253378 170.408262 
L 326.174689 171.249501 
L 331.096 171.885052 
L 336.017311 172.315252 
L 340.938622 172.534598 
L 345.859934 172.531533 
L 350.289114 172.323878 
L 354.718294 171.904008 
L 359.147474 171.251493 
L 363.576654 170.349489 
L 368.005834 169.211676 
L 373.419276 167.805088 
L 374.895669 167.635755 
L 375.879931 167.699957 
L 376.864193 168.028481 
L 377.356325 168.346515 
L 377.848456 168.804031 
L 379.324849 170.553586 
L 379.81698 169.519055 
L 380.309111 165.09085 
L 381.293373 150.978177 
L 381.785505 147.776167 
L 382.277636 147.206071 
L 383.754029 148.19412 
L 384.24616 148.278107 
L 384.738291 148.199057 
L 385.230422 147.978979 
L 386.214685 147.18787 
L 387.198947 146.00492 
L 388.183209 144.473088 
L 389.167471 142.595877 
L 390.151733 140.346058 
L 391.135996 137.666558 
L 392.120258 134.465394 
L 393.10452 130.607006 
L 394.088782 125.913182 
L 395.565176 117.164964 
L 396.549438 111.892161 
L 397.041569 111.028434 
L 397.5337 111.97699 
L 398.025831 114.301148 
L 399.994356 125.739743 
L 400.978618 130.229499 
L 401.96288 133.857752 
L 402.947142 136.791876 
L 403.931405 139.155092 
L 404.915667 141.026729 
L 405.899929 142.451305 
L 406.884191 143.444609 
L 407.868453 143.995503 
L 408.360585 144.093621 
L 408.852716 144.063112 
L 409.344847 143.892801 
L 409.836978 143.568122 
L 410.329109 143.070271 
L 410.82124 142.37511 
L 411.313371 141.451776 
L 411.805502 140.261149 
L 412.297633 138.754848 
L 413.281896 134.578873 
L 414.758289 126.769693 
L 415.25042 126.880419 
L 415.742551 130.099511 
L 418.203207 154.319724 
L 419.6796 165.132798 
L 421.155993 174.077349 
L 423.124518 184.25282 
L 425.093042 193.136696 
L 427.061567 201.106517 
L 429.030091 208.326084 
L 430.998616 214.833037 
L 432.96714 220.580336 
L 434.443533 224.334207 
L 435.919927 227.55945 
L 437.39632 230.219413 
L 438.872713 232.298918 
L 439.856976 233.368147 
L 440.841238 234.195914 
L 441.8255 234.798341 
L 442.809762 235.195248 
L 443.794025 235.408736 
L 445.270418 235.435355 
L 446.746811 235.176654 
L 448.223205 234.701135 
L 450.191729 233.828985 
L 453.144516 232.218096 
L 468.892711 223.104096 
L 474.306153 220.407727 
L 481.195989 217.248281 
L 493.007136 212.149327 
L 501.373364 208.428657 
L 506.786807 205.800757 
L 511.215987 203.422845 
L 515.153036 201.055027 
L 518.597953 198.708304 
L 521.55074 196.41789 
L 524.011396 194.24651 
L 526.472051 191.757923 
L 528.440576 189.466495 
L 530.4091 186.820241 
L 531.885493 184.531336 
L 533.361887 181.90081 
L 534.83828 178.821715 
L 536.314673 175.136187 
L 537.791067 170.608774 
L 538.775329 166.965696 
L 540.251722 160.391545 
L 541.728116 153.69667 
L 542.220247 152.490227 
L 542.712378 152.418582 
L 543.204509 153.548898 
L 543.69664 155.583243 
L 546.649427 170.513192 
L 548.12582 176.342688 
L 549.602213 181.204832 
L 551.078607 185.379119 
L 552.555 189.057266 
L 552.555 189.057266 
" style="fill:none;stroke:#000000;stroke-linecap:square;stroke-width:1.5;"/>
   </g>
   <g id="patch_3">
    <path d="M 60.423889 246.04 
L 60.423889 13.32 
" style="fill:none;stroke:#000000;stroke-linecap:square;stroke-linejoin:miter;stroke-width:0.8;"/>
   </g>
   <g id="patch_4">
    <path d="M 552.555 246.04 
L 552.555 13.32 
" style="fill:none;stroke:#000000;stroke-linecap:square;stroke-linejoin:miter;stroke-width:0.8;"/>
   </g>
   <g id="patch_5">
    <path d="M 60.423889 246.04 
L 552.555 246.04 
" style="fill:none;stroke:#000000;stroke-linecap:square;stroke-linejoin:miter;stroke-width:0.8;"/>
   </g>
   <g id="patch_6">
    <path d="M 60.423889 13.32 
L 552.555 13.32 
" style="fill:none;stroke:#000000;stroke-linecap:square;stroke-linejoin:miter;stroke-width:0.8;"/>
   </g>
   <g id="legend_1">
    <g id="patch_7">
     <path d="M 395.105625 58.1475 
L 544.155 58.1475 
Q 546.555 58.1475 546.555 55.7475 
L 546.555 21.72 
Q 546.555 19.32 544.155 19.32 
L 395.105625 19.32 
Q 392.705625 19.32 392.705625 21.72 
L 392.705625 55.7475 
Q 392.705625 58.1475 395.105625 58.1475 
z
" style="fill:#ffffff;opacity:0.8;stroke:#cccccc;stroke-linejoin:miter;"/>
    </g>
    <g id="line2d_54">
     <path d="M 397.505625 29.038125 
L 421.505625 29.038125 
" style="fill:none;stroke:#1f77b4;stroke-linecap:square;stroke-width:5;"/>
    </g>
    <g id="line2d_55"/>
    <g id="text_14">
     <!-- FEM -->
     <defs>
      <path d="M 9.8125 72.90625 
L 55.90625 72.90625 
L 55.90625 64.59375 
L 19.671875 64.59375 
L 19.671875 43.015625 
L 54.390625 43.015625 
L 54.390625 34.71875 
L 19.671875 34.71875 
L 19.671875 8.296875 
L 56.78125 8.296875 
L 56.78125 0 
L 9.8125 0 
z
" id="DejaVuSans-45"/>
      <path d="M 9.8125 72.90625 
L 24.515625 72.90625 
L 43.109375 23.296875 
L 61.8125 72.90625 
L 76.515625 72.90625 
L 76.515625 0 
L 66.890625 0 
L 66.890625 64.015625 
L 48.09375 14.015625 
L 38.1875 14.015625 
L 19.390625 64.015625 
L 19.390625 0 
L 9.8125 0 
z
" id="DejaVuSans-4d"/>
     </defs>
     <g transform="translate(431.105625 33.238125)scale(0.12 -0.12)">
      <use xlink:href="#DejaVuSans-46"/>
      <use x="57.519531" xlink:href="#DejaVuSans-45"/>
      <use x="120.703125" xlink:href="#DejaVuSans-4d"/>
     </g>
    </g>
    <g id="line2d_56">
     <path d="M 397.505625 46.651875 
L 421.505625 46.651875 
" style="fill:none;stroke:#000000;stroke-linecap:square;stroke-width:1.5;"/>
    </g>
    <g id="line2d_57"/>
    <g id="text_15">
     <!-- Presented method -->
     <defs>
      <path d="M 19.671875 64.796875 
L 19.671875 37.40625 
L 32.078125 37.40625 
Q 38.96875 37.40625 42.71875 40.96875 
Q 46.484375 44.53125 46.484375 51.125 
Q 46.484375 57.671875 42.71875 61.234375 
Q 38.96875 64.796875 32.078125 64.796875 
z
M 9.8125 72.90625 
L 32.078125 72.90625 
Q 44.34375 72.90625 50.609375 67.359375 
Q 56.890625 61.8125 56.890625 51.125 
Q 56.890625 40.328125 50.609375 34.8125 
Q 44.34375 29.296875 32.078125 29.296875 
L 19.671875 29.296875 
L 19.671875 0 
L 9.8125 0 
z
" id="DejaVuSans-50"/>
      <path d="M 45.40625 46.390625 
L 45.40625 75.984375 
L 54.390625 75.984375 
L 54.390625 0 
L 45.40625 0 
L 45.40625 8.203125 
Q 42.578125 3.328125 38.25 0.953125 
Q 33.9375 -1.421875 27.875 -1.421875 
Q 17.96875 -1.421875 11.734375 6.484375 
Q 5.515625 14.40625 5.515625 27.296875 
Q 5.515625 40.1875 11.734375 48.09375 
Q 17.96875 56 27.875 56 
Q 33.9375 56 38.25 53.625 
Q 42.578125 51.265625 45.40625 46.390625 
z
M 14.796875 27.296875 
Q 14.796875 17.390625 18.875 11.75 
Q 22.953125 6.109375 30.078125 6.109375 
Q 37.203125 6.109375 41.296875 11.75 
Q 45.40625 17.390625 45.40625 27.296875 
Q 45.40625 37.203125 41.296875 42.84375 
Q 37.203125 48.484375 30.078125 48.484375 
Q 22.953125 48.484375 18.875 42.84375 
Q 14.796875 37.203125 14.796875 27.296875 
z
" id="DejaVuSans-64"/>
      <path d="M 54.890625 33.015625 
L 54.890625 0 
L 45.90625 0 
L 45.90625 32.71875 
Q 45.90625 40.484375 42.875 44.328125 
Q 39.84375 48.1875 33.796875 48.1875 
Q 26.515625 48.1875 22.3125 43.546875 
Q 18.109375 38.921875 18.109375 30.90625 
L 18.109375 0 
L 9.078125 0 
L 9.078125 75.984375 
L 18.109375 75.984375 
L 18.109375 46.1875 
Q 21.34375 51.125 25.703125 53.5625 
Q 30.078125 56 35.796875 56 
Q 45.21875 56 50.046875 50.171875 
Q 54.890625 44.34375 54.890625 33.015625 
z
" id="DejaVuSans-68"/>
      <path d="M 30.609375 48.390625 
Q 23.390625 48.390625 19.1875 42.75 
Q 14.984375 37.109375 14.984375 27.296875 
Q 14.984375 17.484375 19.15625 11.84375 
Q 23.34375 6.203125 30.609375 6.203125 
Q 37.796875 6.203125 41.984375 11.859375 
Q 46.1875 17.53125 46.1875 27.296875 
Q 46.1875 37.015625 41.984375 42.703125 
Q 37.796875 48.390625 30.609375 48.390625 
z
M 30.609375 56 
Q 42.328125 56 49.015625 48.375 
Q 55.71875 40.765625 55.71875 27.296875 
Q 55.71875 13.875 49.015625 6.21875 
Q 42.328125 -1.421875 30.609375 -1.421875 
Q 18.84375 -1.421875 12.171875 6.21875 
Q 5.515625 13.875 5.515625 27.296875 
Q 5.515625 40.765625 12.171875 48.375 
Q 18.84375 56 30.609375 56 
z
" id="DejaVuSans-6f"/>
     </defs>
     <g transform="translate(431.105625 50.851875)scale(0.12 -0.12)">
      <use xlink:href="#DejaVuSans-50"/>
      <use x="60.287109" xlink:href="#DejaVuSans-72"/>
      <use x="101.369141" xlink:href="#DejaVuSans-65"/>
      <use x="162.892578" xlink:href="#DejaVuSans-73"/>
      <use x="214.992188" xlink:href="#DejaVuSans-65"/>
      <use x="276.515625" xlink:href="#DejaVuSans-6e"/>
      <use x="339.894531" xlink:href="#DejaVuSans-74"/>
      <use x="379.103516" xlink:href="#DejaVuSans-65"/>
      <use x="440.626953" xlink:href="#DejaVuSans-64"/>
      <use x="504.103516" xlink:href="#DejaVuSans-20"/>
      <use x="535.890625" xlink:href="#DejaVuSans-6d"/>
      <use x="633.302734" xlink:href="#DejaVuSans-65"/>
      <use x="694.826172" xlink:href="#DejaVuSans-74"/>
      <use x="734.035156" xlink:href="#DejaVuSans-68"/>
      <use x="797.414062" xlink:href="#DejaVuSans-6f"/>
      <use x="858.595703" xlink:href="#DejaVuSans-64"/>
     </g>
    </g>
   </g>
  </g>
 </g>
 <defs>
  <clipPath id="p38c7154b22">
   <rect height="232.72" width="492.131111" x="60.423889" y="13.32"/>
  </clipPath>
 </defs>
</svg>
